<svg width="270" height="270" viewBox="0 0 270 270" fill="none" xmlns="http://www.w3.org/2000/svg">
<rect width="270" height="270" fill="white"/>
<g filter="url(#filter0_d_21_64)">
<path d="M64.2609 116.914V154H57.4884L41.354 130.658H41.0823V154H33.2415V116.914H40.1226L56.1303 140.238H56.4562V116.914H64.2609Z" fill="#84CC16"/>
<path d="M77.1314 154H68.7291L81.5317 116.914H91.6361L104.42 154H96.0183L86.7287 125.389H86.439L77.1314 154ZM76.6062 139.423H96.4529V145.543H76.6062V139.423ZM108.884 116.914H118.554L128.767 141.831H129.202L139.415 116.914H149.085V154H141.479V129.862H141.171L131.574 153.819H126.395L116.797 129.771H116.49V154H108.884V116.914ZM178.452 116.914H186.292V140.998C186.292 143.702 185.647 146.069 184.355 148.097C183.075 150.125 181.283 151.706 178.977 152.841C176.671 153.964 173.985 154.525 170.919 154.525C167.84 154.525 165.148 153.964 162.842 152.841C160.536 151.706 158.744 150.125 157.464 148.097C156.184 146.069 155.545 143.702 155.545 140.998V116.914H163.386V140.328C163.386 141.741 163.693 142.996 164.309 144.095C164.937 145.193 165.818 146.057 166.953 146.684C168.088 147.312 169.41 147.626 170.919 147.626C172.44 147.626 173.762 147.312 174.884 146.684C176.019 146.057 176.894 145.193 177.51 144.095C178.138 142.996 178.452 141.741 178.452 140.328V116.914ZM192.744 154V116.914H200.584V132.216H216.502V116.914H224.324V154H216.502V138.68H200.584V154H192.744Z" fill="black"/>
</g>
<rect x="228.301" y="104.283" width="19.264" height="19.264" rx="9.63199" stroke="black" stroke-width="0.566587"/>
<path d="M239.714 111.609C239.666 111.122 239.458 110.743 239.092 110.474C238.726 110.204 238.229 110.069 237.601 110.069C237.175 110.069 236.815 110.13 236.521 110.251C236.227 110.367 236.002 110.53 235.845 110.739C235.692 110.949 235.615 111.186 235.615 111.452C235.607 111.673 235.654 111.866 235.754 112.031C235.859 112.196 236.002 112.339 236.183 112.46C236.364 112.576 236.573 112.679 236.811 112.768C237.048 112.852 237.302 112.924 237.571 112.985L238.682 113.25C239.221 113.371 239.716 113.532 240.167 113.733C240.617 113.935 241.008 114.182 241.338 114.476C241.668 114.77 241.923 115.116 242.104 115.514C242.289 115.912 242.384 116.369 242.388 116.884C242.384 117.641 242.191 118.297 241.809 118.852C241.43 119.403 240.883 119.832 240.167 120.138C239.454 120.439 238.595 120.59 237.589 120.59C236.591 120.59 235.722 120.437 234.982 120.132C234.245 119.826 233.67 119.373 233.255 118.773C232.845 118.17 232.63 117.423 232.61 116.534H235.139C235.167 116.949 235.286 117.295 235.495 117.572C235.708 117.846 235.992 118.053 236.346 118.194C236.704 118.331 237.108 118.399 237.559 118.399C238.002 118.399 238.386 118.335 238.712 118.206C239.042 118.077 239.297 117.898 239.479 117.669C239.66 117.439 239.75 117.176 239.75 116.878C239.75 116.6 239.668 116.367 239.503 116.178C239.342 115.989 239.104 115.828 238.79 115.695C238.481 115.562 238.1 115.442 237.65 115.333L236.304 114.995C235.261 114.741 234.438 114.345 233.835 113.806C233.231 113.267 232.931 112.54 232.935 111.627C232.931 110.878 233.131 110.224 233.533 109.665C233.939 109.106 234.497 108.669 235.205 108.355C235.913 108.041 236.718 107.884 237.619 107.884C238.537 107.884 239.338 108.041 240.022 108.355C240.71 108.669 241.245 109.106 241.627 109.665C242.01 110.224 242.207 110.872 242.219 111.609H239.714Z" fill="black"/>
<defs>
<filter id="filter0_d_21_64" x="28.7324" y="116.914" width="200.101" height="46.629" filterUnits="userSpaceOnUse" color-interpolation-filters="sRGB">
<feFlood flood-opacity="0" result="BackgroundImageFix"/>
<feColorMatrix in="SourceAlpha" type="matrix" values="0 0 0 0 0 0 0 0 0 0 0 0 0 0 0 0 0 0 127 0" result="hardAlpha"/>
<feOffset dy="4.50909"/>
<feGaussianBlur stdDeviation="2.25455"/>
<feComposite in2="hardAlpha" operator="out"/>
<feColorMatrix type="matrix" values="0 0 0 0 0 0 0 0 0 0 0 0 0 0 0 0 0 0 0.25 0"/>
<feBlend mode="normal" in2="BackgroundImageFix" result="effect1_dropShadow_21_64"/>
<feBlend mode="normal" in="SourceGraphic" in2="effect1_dropShadow_21_64" result="shape"/>
</filter>
</defs>
</svg>
