<?xml version="1.0" standalone="no"?>
<!DOCTYPE svg PUBLIC "-//W3C//DTD SVG 20010904//EN"
 "http://www.w3.org/TR/2001/REC-SVG-20010904/DTD/svg10.dtd">
<svg version="1.0" xmlns="http://www.w3.org/2000/svg"
 width="210.000000pt" height="210.000000pt" viewBox="0 0 210.000000 210.000000"
 preserveAspectRatio="xMidYMid meet">

<g transform="translate(0.000000,210.000000) scale(0.100000,-0.100000)"
fill="#000000" stroke="none">
<path d="M997 1984 c-200 -43 -291 -143 -296 -326 -1 -11 -24 -28 -65 -48
-109 -51 -153 -128 -144 -250 2 -33 1 -60 -3 -60 -4 0 -38 7 -75 16 -44 10
-70 12 -77 5 -15 -15 -1 -39 25 -44 21 -4 21 -4 -4 -6 -31 -1 -41 -12 -32 -35
5 -13 22 -16 83 -16 43 0 81 -3 84 -6 3 -4 2 -15 -4 -26 -8 -15 -4 -25 26 -55
32 -32 34 -38 21 -52 -11 -13 -13 -32 -6 -99 14 -133 44 -160 133 -119 l54 24
-4 -106 c-2 -58 -8 -153 -13 -210 -6 -58 -7 -108 -3 -112 5 -4 22 -9 38 -11
29 -3 30 -4 35 -68 3 -36 9 -70 13 -77 4 -7 46 -33 92 -58 l84 -46 -25 -56
c-22 -51 -25 -93 -5 -93 20 0 121 147 121 177 0 8 -9 17 -20 21 -11 4 -35 32
-54 62 -33 53 -34 55 -20 90 8 19 18 38 22 41 4 4 77 9 163 13 l156 5 22 -39
22 -39 -42 -31 c-23 -16 -53 -30 -67 -30 -23 0 -24 -2 -20 -48 8 -84 70 -194
95 -168 3 3 0 31 -7 62 -16 66 -20 62 92 100 108 36 117 45 120 124 3 64 4 65
33 70 28 5 30 9 33 51 2 25 -3 74 -10 110 -16 77 -12 159 8 159 7 0 21 14 30
31 13 26 15 61 13 203 -1 94 -6 181 -11 194 -5 14 -19 25 -39 29 -27 5 -29 7
-15 21 13 14 20 14 67 -1 98 -32 127 -20 149 63 14 51 7 106 -20 167 -15 33
-24 43 -43 43 -19 0 -26 8 -37 43 -17 58 -65 152 -107 210 -69 94 -214 173
-372 202 -98 18 -106 18 -194 -1z m204 -65 c38 -7 69 -15 69 -19 0 -4 -18 -19
-41 -34 -32 -22 -40 -32 -37 -53 6 -47 31 -51 97 -15 32 17 64 32 70 32 6 0
33 -22 61 -50 53 -52 87 -63 110 -35 8 9 17 12 22 7 11 -11 31 -258 24 -295
l-6 -29 35 31 c19 17 49 38 66 47 29 14 32 14 50 -2 10 -9 24 -36 30 -58 13
-48 6 -150 -11 -171 -16 -19 -65 -19 -123 1 -38 13 -51 14 -62 4 -8 -7 -21
-10 -29 -7 -8 3 -17 3 -20 -1 -4 -3 -14 -7 -24 -8 -9 -1 -69 -15 -132 -32
-258 -66 -463 -102 -574 -102 -89 0 -100 4 -111 38 l-7 24 75 -7 75 -7 22 30
c34 46 49 47 85 7 18 -19 39 -35 46 -35 8 0 2 11 -14 25 -38 36 -37 83 4 130
17 19 26 35 20 35 -17 0 -60 -52 -66 -81 -8 -35 -56 -45 -74 -16 -7 10 -15 17
-17 14 -3 -3 0 -14 7 -25 7 -11 9 -28 5 -38 -7 -18 -8 -18 -17 -2 -5 10 -28
20 -55 24 -26 4 -54 15 -65 27 -17 18 -30 21 -93 20 l-75 -2 -10 31 c-23 66
-5 156 41 213 19 22 58 50 97 68 l66 32 5 70 c3 40 13 85 24 105 19 34 19 34
29 12 14 -32 45 -28 103 13 27 19 52 35 56 35 4 0 30 -20 58 -45 56 -50 65
-53 92 -28 27 24 22 45 -20 91 l-39 42 54 0 c30 0 85 -5 124 -11z m-746 -628
c44 -11 71 -19 60 -20 -28 0 -154 25 -162 32 -10 11 17 8 102 -12z m191 -23
c5 -7 0 -9 -14 -6 -12 3 -29 0 -39 -8 -16 -13 -16 -14 9 -8 15 3 35 1 45 -5
17 -10 16 -10 -4 -11 -25 0 -31 -25 -9 -33 27 -11 2 -87 -30 -87 -7 0 -14 -10
-16 -22 -2 -13 -7 -21 -13 -18 -5 3 -9 9 -7 14 2 5 -14 26 -34 47 -43 44 -42
68 5 118 22 23 38 31 64 31 20 0 39 -5 43 -12z m-171 -28 l40 -8 -50 -1 c-60
-1 -125 9 -125 19 0 8 67 3 135 -10z m280 -10 c27 -7 27 -8 5 -8 -14 0 -38 4
-55 8 -27 7 -27 8 -5 8 14 0 39 -4 55 -8z m0 -25 c6 -2 -11 -4 -37 -4 -27 -1
-48 3 -48 7 0 7 62 5 85 -3z m663 -35 c6 0 12 -7 12 -15 0 -8 7 -15 15 -15 9
0 18 -7 21 -15 4 -8 12 -15 19 -15 13 0 25 -27 31 -72 l4 -28 -166 0 c-147 0
-165 2 -160 16 3 9 6 27 6 40 0 15 6 24 15 24 8 0 15 7 15 15 0 9 8 19 18 22
9 4 22 13 28 21 6 8 16 12 22 8 6 -3 14 -2 17 4 4 6 15 8 26 5 11 -4 19 -2 19
5 0 8 8 10 23 6 12 -3 28 -6 35 -6z m-748 -48 c0 -12 -39 -46 -45 -41 -6 7 24
49 36 49 5 0 9 -4 9 -8z m798 -130 c34 -1 62 -5 62 -9 0 -5 -9 -23 -20 -41
l-20 -33 -41 32 c-29 23 -43 29 -51 21 -8 -8 -8 -18 0 -37 7 -14 12 -28 12
-30 0 -2 -23 4 -51 13 -34 11 -52 13 -57 6 -4 -6 -19 -14 -34 -17 -22 -6 -30
-2 -46 20 -31 44 -36 71 -15 75 18 3 137 3 261 0z m22 -127 c0 -21 -59 -45
-127 -51 -67 -6 -70 -6 -86 19 -24 37 -21 49 11 45 19 -2 26 1 24 11 -2 10 4
12 25 7 62 -14 103 -18 103 -10 0 5 -7 18 -15 28 -29 39 -14 39 25 1 22 -21
40 -44 40 -50z m-166 -164 c3 -5 51 -8 106 -8 55 0 102 -2 106 -5 10 -11 38
-197 31 -205 -4 -4 -104 -9 -222 -11 l-215 -5 0 27 c0 36 -17 66 -37 66 -16 0
-16 -1 0 -12 9 -7 17 -26 19 -43 l3 -30 -135 -6 c-74 -3 -164 -6 -200 -5 l-65
1 -3 45 c-3 62 11 136 27 132 7 -1 49 9 93 23 69 22 83 24 97 12 30 -26 50
-26 128 -3 69 21 81 22 100 10 30 -19 53 -18 104 6 50 22 56 23 63 11z m176
-300 c0 -31 -6 -64 -12 -73 -20 -24 -116 -52 -132 -39 -20 17 -25 59 -10 72
11 9 10 18 -6 50 -11 21 -20 40 -20 41 0 2 41 4 90 5 l90 2 0 -58z m-556 7
c-8 -24 -13 -52 -10 -63 6 -23 -27 -85 -44 -85 -22 0 -90 41 -100 59 -5 11
-10 45 -10 75 l0 56 90 0 89 0 -15 -42z m385 -104 c14 -40 9 -48 -36 -60 -26
-7 -27 -14 -12 -67 6 -21 8 -44 6 -50 -7 -18 -55 91 -63 142 -6 39 -5 43 12
37 11 -3 29 3 44 14 33 26 34 26 49 -16z m-313 -64 c8 0 14 -8 14 -18 0 -17
-73 -137 -91 -147 -16 -10 -10 24 11 65 27 53 25 67 -11 85 -16 9 -29 19 -27
23 2 4 12 22 23 39 l20 33 24 -40 c12 -22 29 -40 37 -40z"/>
<path d="M896 1795 c-43 -15 -91 -56 -112 -97 -16 -31 -17 -38 -6 -38 5 0 16
15 25 34 20 43 75 85 121 93 71 11 126 -35 141 -120 l7 -38 -37 25 c-93 63
-225 1 -225 -106 0 -45 30 -83 77 -99 54 -17 134 3 168 43 24 29 25 35 22 127
-2 73 -7 103 -21 124 -34 51 -101 73 -160 52z m98 -218 c9 -15 7 -22 -13 -38
-51 -42 -104 -10 -60 37 26 28 56 28 73 1z"/>
<path d="M1275 1774 c-16 -8 -38 -23 -49 -32 -20 -19 -57 -87 -54 -99 1 -5 -6
-29 -16 -55 -15 -38 -16 -53 -7 -80 15 -44 42 -60 117 -66 53 -4 68 -1 99 18
67 41 78 119 24 176 -36 38 -115 47 -170 20 -29 -15 -30 -14 -23 7 29 91 134
132 210 82 25 -16 74 -103 74 -132 0 -12 3 -14 11 -6 8 8 5 24 -11 59 -26 59
-55 92 -97 110 -42 18 -71 18 -108 -2z m45 -199 c19 -23 -14 -55 -57 -55 -26
0 -33 4 -33 19 0 43 63 68 90 36z"/>
<path d="M1382 1098 c-7 -7 -12 -21 -11 -32 0 -20 1 -20 9 2 5 12 14 22 19 22
5 0 7 -10 4 -22 -5 -18 -3 -20 7 -12 13 13 10 46 -5 51 -6 2 -16 -2 -23 -9z"/>
<path d="M1277 1074 c-4 -4 -7 -17 -6 -28 0 -20 1 -20 10 2 11 29 29 20 22
-11 -5 -17 -3 -19 7 -11 6 7 10 20 8 30 -3 19 -29 30 -41 18z"/>
</g>
</svg>
